<?xml version="1.0" encoding="UTF-8" standalone="no"?>
<!-- Created with Inkscape (http://www.inkscape.org/) -->

<svg
   xmlns:dc="http://purl.org/dc/elements/1.1/"
   xmlns:cc="http://creativecommons.org/ns#"
   xmlns:rdf="http://www.w3.org/1999/02/22-rdf-syntax-ns#"
   xmlns:svg="http://www.w3.org/2000/svg"
   xmlns="http://www.w3.org/2000/svg"
   xmlns:sodipodi="http://sodipodi.sourceforge.net/DTD/sodipodi-0.dtd"
   xmlns:inkscape="http://www.inkscape.org/namespaces/inkscape"
   width="249.46194mm"
   height="169.80217mm"
   viewBox="0 0 249.46194 169.80217"
   version="1.1"
   id="svg1623"
   inkscape:version="0.92.4 5da689c313, 2019-01-14"
   sodipodi:docname="importancesampling2.svg">
  <defs
     id="defs1617">
    <marker
       inkscape:isstock="true"
       style="overflow:visible"
       id="marker16452"
       refX="0"
       refY="0"
       orient="auto"
       inkscape:stockid="Arrow1Mend">
      <path
         transform="matrix(-0.4,0,0,-0.4,-4,0)"
         style="fill:#000000;fill-opacity:1;fill-rule:evenodd;stroke:#000000;stroke-width:1.00000003pt;stroke-opacity:1"
         d="M 0,0 5,-5 -12.5,0 5,5 Z"
         id="path16450"
         inkscape:connector-curvature="0" />
    </marker>
    <marker
       inkscape:stockid="Arrow1Mend"
       orient="auto"
       refY="0"
       refX="0"
       id="Arrow1Mend"
       style="overflow:visible"
       inkscape:isstock="true"
       inkscape:collect="always">
      <path
         id="path2181"
         d="M 0,0 5,-5 -12.5,0 5,5 Z"
         style="fill:#000000;fill-opacity:1;fill-rule:evenodd;stroke:#000000;stroke-width:1.00000003pt;stroke-opacity:1"
         transform="matrix(-0.4,0,0,-0.4,-4,0)"
         inkscape:connector-curvature="0" />
    </marker>
    <marker
       inkscape:stockid="Arrow1Mend"
       orient="auto"
       refY="0"
       refX="0"
       id="Arrow1Mend-5"
       style="overflow:visible"
       inkscape:isstock="true">
      <path
         inkscape:connector-curvature="0"
         id="path2181-3"
         d="M 0,0 5,-5 -12.5,0 5,5 Z"
         style="fill:#000000;fill-opacity:1;fill-rule:evenodd;stroke:#000000;stroke-width:1.00000003pt;stroke-opacity:1"
         transform="matrix(-0.4,0,0,-0.4,-4,0)" />
    </marker>
    <marker
       inkscape:stockid="Arrow1Mend"
       orient="auto"
       refY="0"
       refX="0"
       id="Arrow1Mend-6"
       style="overflow:visible"
       inkscape:isstock="true">
      <path
         inkscape:connector-curvature="0"
         id="path2181-2"
         d="M 0,0 5,-5 -12.5,0 5,5 Z"
         style="fill:#000000;fill-opacity:1;fill-rule:evenodd;stroke:#000000;stroke-width:1.00000003pt;stroke-opacity:1"
         transform="matrix(-0.4,0,0,-0.4,-4,0)" />
    </marker>
    <marker
       inkscape:stockid="Arrow1Mend"
       orient="auto"
       refY="0"
       refX="0"
       id="Arrow1Mend-1"
       style="overflow:visible"
       inkscape:isstock="true">
      <path
         inkscape:connector-curvature="0"
         id="path2181-27"
         d="M 0,0 5,-5 -12.5,0 5,5 Z"
         style="fill:#000000;fill-opacity:1;fill-rule:evenodd;stroke:#000000;stroke-width:1.00000003pt;stroke-opacity:1"
         transform="matrix(-0.4,0,0,-0.4,-4,0)" />
    </marker>
    <marker
       inkscape:stockid="Arrow1Mend"
       orient="auto"
       refY="0"
       refX="0"
       id="Arrow1Mend-1-9"
       style="overflow:visible"
       inkscape:isstock="true">
      <path
         inkscape:connector-curvature="0"
         id="path2181-27-3"
         d="M 0,0 5,-5 -12.5,0 5,5 Z"
         style="fill:#000000;fill-opacity:1;fill-rule:evenodd;stroke:#000000;stroke-width:1.00000003pt;stroke-opacity:1"
         transform="matrix(-0.4,0,0,-0.4,-4,0)" />
    </marker>
    <marker
       inkscape:stockid="Arrow1Mend"
       orient="auto"
       refY="0"
       refX="0"
       id="Arrow1Mend-1-9-0"
       style="overflow:visible"
       inkscape:isstock="true">
      <path
         inkscape:connector-curvature="0"
         id="path2181-27-3-6"
         d="M 0,0 5,-5 -12.5,0 5,5 Z"
         style="fill:#000000;fill-opacity:1;fill-rule:evenodd;stroke:#000000;stroke-width:1.00000003pt;stroke-opacity:1"
         transform="matrix(-0.4,0,0,-0.4,-4,0)" />
    </marker>
  </defs>
  <sodipodi:namedview
     id="base"
     pagecolor="#ffffff"
     bordercolor="#666666"
     borderopacity="1.0"
     inkscape:pageopacity="0.0"
     inkscape:pageshadow="2"
     inkscape:zoom="0.98994949"
     inkscape:cx="544.81297"
     inkscape:cy="267.29485"
     inkscape:document-units="mm"
     inkscape:current-layer="layer1"
     showgrid="false"
     scale-x="1"
     inkscape:window-width="1920"
     inkscape:window-height="1019"
     inkscape:window-x="0"
     inkscape:window-y="0"
     inkscape:window-maximized="1"
     fit-margin-top="0"
     fit-margin-left="0"
     fit-margin-right="0"
     fit-margin-bottom="0" />
  <metadata
     id="metadata1620">
    <rdf:RDF>
      <cc:Work
         rdf:about="">
        <dc:format>image/svg+xml</dc:format>
        <dc:type
           rdf:resource="http://purl.org/dc/dcmitype/StillImage" />
        <dc:title></dc:title>
      </cc:Work>
    </rdf:RDF>
  </metadata>
  <g
     inkscape:label="Layer 1"
     inkscape:groupmode="layer"
     id="layer1"
     transform="translate(-29.21506,-57.716044)">
    <path
       style="fill:none;stroke:#000000;stroke-width:1.16499996;stroke-linecap:butt;stroke-linejoin:miter;stroke-miterlimit:4;stroke-dasharray:none;stroke-opacity:1;marker-end:url(#Arrow1Mend)"
       d="m 141.65285,156.36127 c 3.19368,-10.1465 12.58118,-5.99102 38.37441,-20.5693 6.66893,-3.76927 3.56906,-29.26629 13.79495,-26.50374 16.95146,4.57949 18.52761,-17.575975 29.45596,-15.749606 4.39109,0.733848 21.77085,3.192175 33.56784,-8.538317"
       id="path2170"
       inkscape:connector-curvature="0"
       sodipodi:nodetypes="csssc" />
    <path
       style="fill:none;stroke:#000000;stroke-width:1.16499996;stroke-linecap:butt;stroke-linejoin:miter;stroke-miterlimit:4;stroke-dasharray:none;stroke-opacity:1;marker-end:url(#Arrow1Mend-5)"
       d="m 141.65285,156.36127 c 3.19368,-10.1465 -4.2568,-13.74184 21.53643,-28.32012 6.66893,-3.76927 3.83633,-26.59359 14.06222,-23.83104 16.95146,4.57949 16.92399,-16.774165 27.85234,-14.947796 2.63265,0.439973 11.39479,-0.651968 15.82334,-6.479739 2.95799,-3.892573 6.07132,-5.913654 5.4501,-16.223863"
       id="path2170-5"
       inkscape:connector-curvature="0"
       sodipodi:nodetypes="cssssc" />
    <path
       style="fill:none;stroke:#000000;stroke-width:1.16499996;stroke-linecap:butt;stroke-linejoin:miter;stroke-miterlimit:4;stroke-dasharray:none;stroke-opacity:1;marker-end:url(#Arrow1Mend-6)"
       d="m 141.65285,156.36127 c 3.19368,-10.1465 23.85533,14.12736 49.64856,-0.45092 6.66893,-3.76927 3.56906,-29.26629 13.79495,-26.50374 16.95146,4.57949 20.39849,-11.69604 31.32684,-9.86967 4.3911,0.73385 13.48549,-13.64581 31.69695,-14.41825"
       id="path2170-9"
       inkscape:connector-curvature="0"
       sodipodi:nodetypes="csssc" />
    <path
       style="fill:none;stroke:#000000;stroke-width:0.76499999;stroke-linecap:butt;stroke-linejoin:miter;stroke-miterlimit:4;stroke-dasharray:0.765, 0.765;stroke-dashoffset:0;stroke-opacity:1;marker-end:url(#Arrow1Mend-1)"
       d="m 141.65285,156.36127 c 3.19368,-10.1465 -7.6135,-16.06152 -32.67046,-27.17787 C 94.917143,122.94345 82.082722,127.1786 70.125241,114.43952 58.108015,101.63679 73.418488,101.67439 64.568893,91.740905 61.607448,88.416743 57.207365,79.431452 34.526586,82.133506"
       id="path2170-0"
       inkscape:connector-curvature="0"
       sodipodi:nodetypes="csssc" />
    <path
       style="fill:none;stroke:#000000;stroke-width:0.76499999;stroke-linecap:butt;stroke-linejoin:miter;stroke-miterlimit:4;stroke-dasharray:0.765, 0.765;stroke-dashoffset:0;stroke-opacity:1;marker-end:url(#Arrow1Mend-1-9)"
       d="m 141.65285,156.36127 c -21.12785,2.94971 10.15387,15.59055 -15.7049,24.78668 -14.49777,5.15583 -26.899662,-2.0048 -38.857143,-14.74388 -12.017227,-12.80273 5.733597,-15.6611 -5.556348,-22.69862 -18.19581,-11.34225 -26.070396,5.06307 -48.751176,7.76512"
       id="path2170-0-6"
       inkscape:connector-curvature="0"
       sodipodi:nodetypes="csssc" />
    <path
       style="fill:none;stroke:#000000;stroke-width:0.76499999;stroke-linecap:butt;stroke-linejoin:miter;stroke-miterlimit:4;stroke-dasharray:0.765, 0.765;stroke-dashoffset:0;stroke-opacity:1;marker-end:url(#Arrow1Mend-1-9-0)"
       d="m 141.65285,156.36127 c -0.0136,25.66762 52.48176,34.97271 26.623,44.16884 -14.49777,5.15583 -26.36513,15.36772 -38.32261,2.62864 -12.01723,-12.80273 -21.79516,9.46223 -33.085112,2.42471 -18.1958,-11.34225 -27.40674,-8.3004 -50.08752,-5.59835"
       id="path2170-0-6-2"
       inkscape:connector-curvature="0"
       sodipodi:nodetypes="csssc" />
    <text
       xml:space="preserve"
       style="font-style:normal;font-weight:normal;font-size:10.58333302px;line-height:1.25;font-family:sans-serif;letter-spacing:0px;word-spacing:0px;fill:#000000;fill-opacity:1;stroke:none;stroke-width:0.26458332"
       x="207.66843"
       y="147.54138"
       id="text16394"><tspan
         sodipodi:role="line"
         id="tspan16392"
         x="207.66843"
         y="147.54138"
         style="stroke-width:0.26458332">Trajectories</tspan><tspan
         sodipodi:role="line"
         x="207.66843"
         y="160.77055"
         style="stroke-width:0.26458332"
         id="tspan16396">generated by </tspan></text>
    <g
       id="g16425"
       transform="translate(148.86913,74.835468)">
      <g
         word-spacing="normal"
         letter-spacing="normal"
         font-size-adjust="none"
         font-stretch="normal"
         font-weight="normal"
         font-variant="normal"
         font-style="normal"
         stroke-miterlimit="10.433"
         xml:space="preserve"
         transform="matrix(0.3,0,0,-0.3,-52.5,222.75)"
         id="content"
         style="font-style:normal;font-variant:normal;font-weight:normal;font-stretch:normal;letter-spacing:normal;word-spacing:normal;text-anchor:start;fill:none;fill-opacity:1;fill-rule:evenodd;stroke:#000000;stroke-linecap:butt;stroke-linejoin:miter;stroke-miterlimit:10.43299961;stroke-dasharray:none;stroke-dashoffset:0;stroke-opacity:1"><path
           id="path16422"
           d="m 468.72,424.78 h 5.63 c -1.64,-7.38 -2.1,-9.52 -2.1,-12.85 0,-0.75 0,-2.09 0.41,-3.79 0.5,-2.19 1.05,-2.49 1.8,-2.49 0.98,0 2.03,0.89 2.03,1.89 0,0.3 0,0.41 -0.3,1.1 -1.44,3.59 -1.44,6.82 -1.44,8.22 0,2.64 0.35,5.34 0.89,7.92 h 5.69 c 0.64,0 2.44,0 2.44,1.7 0,1.19 -1.05,1.19 -2,1.19 h -16.69 c -1.09,0 -2.98,0 -5.17,-2.35 -1.75,-1.93 -3.05,-4.23 -3.05,-4.48 0,-0.05 0,-0.48 0.6,-0.48 0.4,0 0.5,0.18 0.79,0.59 2.46,3.83 5.35,3.83 6.33,3.83 h 2.85 c -1.6,-6.02 -4.29,-12.05 -6.38,-16.58 -0.41,-0.75 -0.41,-0.86 -0.41,-1.2 0,-0.96 0.8,-1.35 1.46,-1.35 1.5,0 1.89,1.39 2.48,3.24 0.71,2.29 0.71,2.39 1.35,4.89 z"
           inkscape:connector-curvature="0"
           style="fill:#000000;stroke-width:0" /></g>    </g>
    <text
       xml:space="preserve"
       style="font-style:normal;font-weight:normal;font-size:10.58333302px;line-height:1.25;font-family:sans-serif;letter-spacing:0px;word-spacing:0px;fill:#000000;fill-opacity:1;stroke:none;stroke-width:0.26458332"
       x="29.132378"
       y="225.3168"
       id="text16434"><tspan
         sodipodi:role="line"
         id="tspan16432"
         x="29.132378"
         y="225.3168"
         style="stroke-width:0.26458332">Any other possible trajectory</tspan></text>
    <text
       xml:space="preserve"
       style="font-style:normal;font-weight:normal;font-size:10.58333302px;line-height:1.25;font-family:sans-serif;letter-spacing:0px;word-spacing:0px;fill:#000000;fill-opacity:1;stroke:none;stroke-width:0.26458332"
       x="67.084648"
       y="65.756897"
       id="text16438"><tspan
         sodipodi:role="line"
         id="tspan16436"
         x="67.084648"
         y="65.756897"
         style="stroke-width:0.26458332">We only care about the </tspan><tspan
         sodipodi:role="line"
         x="67.084648"
         y="78.986061"
         style="stroke-width:0.26458332"
         id="tspan16440">return of these trajectories</tspan></text>
    <path
       style="fill:none;stroke:#000000;stroke-width:1.16499996;stroke-linecap:butt;stroke-linejoin:miter;stroke-miterlimit:4;stroke-dasharray:none;stroke-opacity:1;marker-end:url(#marker16452)"
       d="m 133.63476,87.940272 31.00327,17.639788"
       id="path16442"
       inkscape:connector-curvature="0" />
  </g>
</svg>
