<?xml version="1.0" encoding="UTF-8" standalone="no"?>
<!-- Created with Inkscape (http://www.inkscape.org/) -->

<svg
   xmlns:dc="http://purl.org/dc/elements/1.1/"
   xmlns:cc="http://creativecommons.org/ns#"
   xmlns:rdf="http://www.w3.org/1999/02/22-rdf-syntax-ns#"
   xmlns:svg="http://www.w3.org/2000/svg"
   xmlns="http://www.w3.org/2000/svg"
   xmlns:sodipodi="http://sodipodi.sourceforge.net/DTD/sodipodi-0.dtd"
   xmlns:inkscape="http://www.inkscape.org/namespaces/inkscape"
   width="297mm"
   height="210mm"
   viewBox="0 0 297 210"
   version="1.1"
   id="svg8"
   inkscape:version="0.92.2 2405546, 2018-03-11"
   sodipodi:docname="onpolicyexploration.svg"
   inkscape:export-filename="/home/vitay/Research/DeepRL/manual/img/onpolicyexploration.png"
   inkscape:export-xdpi="150"
   inkscape:export-ydpi="150">
  <sodipodi:namedview
     id="base"
     pagecolor="#ffffff"
     bordercolor="#666666"
     borderopacity="1.0"
     inkscape:pageopacity="0.0"
     inkscape:pageshadow="2"
     inkscape:zoom="0.7"
     inkscape:cx="332.4589"
     inkscape:cy="331.42857"
     inkscape:document-units="mm"
     inkscape:current-layer="layer1"
     showgrid="false"
     inkscape:window-width="1920"
     inkscape:window-height="1023"
     inkscape:window-x="0"
     inkscape:window-y="0"
     inkscape:window-maximized="1" />
  <defs
     id="defs2">
    <marker
       inkscape:isstock="true"
       style="overflow:visible;"
       id="marker2606"
       refX="0.0"
       refY="0.0"
       orient="auto"
       inkscape:stockid="Arrow1Mend">
      <path
         transform="scale(0.4) rotate(180) translate(10,0)"
         style="fill-rule:evenodd;stroke:#000000;stroke-width:1pt;stroke-opacity:1;fill:#000000;fill-opacity:1"
         d="M 0.0,0.0 L 5.0,-5.0 L -12.5,0.0 L 5.0,5.0 L 0.0,0.0 z "
         id="path2604" />
    </marker>
    <marker
       inkscape:stockid="Arrow1Mend"
       orient="auto"
       refY="0.0"
       refX="0.0"
       id="Arrow1Mend"
       style="overflow:visible;"
       inkscape:isstock="true"
       inkscape:collect="always">
      <path
         id="path828"
         d="M 0.0,0.0 L 5.0,-5.0 L -12.5,0.0 L 5.0,5.0 L 0.0,0.0 z "
         style="fill-rule:evenodd;stroke:#000000;stroke-width:1pt;stroke-opacity:1;fill:#000000;fill-opacity:1"
         transform="scale(0.4) rotate(180) translate(10,0)" />
    </marker>
    <marker
       inkscape:stockid="Arrow1Mend"
       orient="auto"
       refY="0"
       refX="0"
       id="Arrow1Mend-3"
       style="overflow:visible"
       inkscape:isstock="true">
      <path
         inkscape:connector-curvature="0"
         id="path828-6"
         d="M 0,0 5,-5 -12.5,0 5,5 Z"
         style="fill:#000000;fill-opacity:1;fill-rule:evenodd;stroke:#000000;stroke-width:1.00000003pt;stroke-opacity:1"
         transform="matrix(-0.4,0,0,-0.4,-4,0)" />
    </marker>
    <marker
       inkscape:stockid="Arrow1Mend"
       orient="auto"
       refY="0"
       refX="0"
       id="Arrow1Mend-5"
       style="overflow:visible"
       inkscape:isstock="true">
      <path
         inkscape:connector-curvature="0"
         id="path828-3"
         d="M 0,0 5,-5 -12.5,0 5,5 Z"
         style="fill:#000000;fill-opacity:1;fill-rule:evenodd;stroke:#000000;stroke-width:1.00000003pt;stroke-opacity:1"
         transform="matrix(-0.4,0,0,-0.4,-4,0)" />
    </marker>
    <marker
       inkscape:stockid="Arrow1Mend"
       orient="auto"
       refY="0"
       refX="0"
       id="Arrow1Mend-5-6"
       style="overflow:visible"
       inkscape:isstock="true">
      <path
         inkscape:connector-curvature="0"
         id="path828-3-2"
         d="M 0,0 5,-5 -12.5,0 5,5 Z"
         style="fill:#000000;fill-opacity:1;fill-rule:evenodd;stroke:#000000;stroke-width:1.00000003pt;stroke-opacity:1"
         transform="matrix(-0.4,0,0,-0.4,-4,0)" />
    </marker>
    <marker
       inkscape:stockid="Arrow1Mend"
       orient="auto"
       refY="0"
       refX="0"
       id="Arrow1Mend-5-2"
       style="overflow:visible"
       inkscape:isstock="true">
      <path
         inkscape:connector-curvature="0"
         id="path828-3-7"
         d="M 0,0 5,-5 -12.5,0 5,5 Z"
         style="fill:#000000;fill-opacity:1;fill-rule:evenodd;stroke:#000000;stroke-width:1.00000003pt;stroke-opacity:1"
         transform="matrix(-0.4,0,0,-0.4,-4,0)" />
    </marker>
  </defs>
  <metadata
     id="metadata5">
    <rdf:RDF>
      <cc:Work
         rdf:about="">
        <dc:format>image/svg+xml</dc:format>
        <dc:type
           rdf:resource="http://purl.org/dc/dcmitype/StillImage" />
        <dc:title></dc:title>
      </cc:Work>
    </rdf:RDF>
  </metadata>
  <g
     inkscape:label="Layer 1"
     inkscape:groupmode="layer"
     id="layer1"
     transform="translate(0,-87)">
    <ellipse
       style="fill:#000000;fill-opacity:0.19087137;stroke:#000000;stroke-width:0.60000002;stroke-miterlimit:4;stroke-dasharray:none;stroke-dashoffset:0;stroke-opacity:1"
       id="path815"
       cx="249.2753"
       cy="131.63542"
       rx="19.84375"
       ry="19.087799" />
    <path
       style="fill:none;stroke:#000000;stroke-width:0.665;stroke-linecap:butt;stroke-linejoin:miter;stroke-opacity:1;stroke-miterlimit:4;stroke-dasharray:none;marker-end:url(#Arrow1Mend)"
       d="M 6.4255951,290.57441 292.93156,290.95238"
       id="path817"
       inkscape:connector-curvature="0" />
    <path
       style="fill:none;stroke:#000000;stroke-width:0.66500002;stroke-linecap:butt;stroke-linejoin:miter;stroke-miterlimit:4;stroke-dasharray:none;stroke-opacity:1;marker-end:url(#Arrow1Mend-3)"
       d="M 6.4255951,290.57441 6.5265314,93.2769"
       id="path817-7"
       inkscape:connector-curvature="0"
       sodipodi:nodetypes="cc" />
    <g
       id="g1795"
       transform="translate(191.25595,179.91667)">
      <g
         id="content"
         transform="matrix(0.3,0,0,-0.3,-52.5,222.75)"
         xml:space="preserve"
         stroke-miterlimit="10.433"
         font-style="normal"
         font-variant="normal"
         font-weight="normal"
         font-stretch="normal"
         font-size-adjust="none"
         letter-spacing="normal"
         word-spacing="normal"
         style="font-style:normal;font-variant:normal;font-weight:normal;font-stretch:normal;letter-spacing:normal;word-spacing:normal;text-anchor:start;fill:none;fill-opacity:1;fill-rule:evenodd;stroke:#000000;stroke-linecap:butt;stroke-linejoin:miter;stroke-miterlimit:10.43299961;stroke-dasharray:none;stroke-dashoffset:0;stroke-opacity:1"><path
           d="m 478.19,431.11 v 0.31 l -0.01,0.34 -0.02,0.36 -0.02,0.37 -0.03,0.39 -0.04,0.39 -0.04,0.41 -0.06,0.41 -0.07,0.42 -0.07,0.43 -0.09,0.42 -0.1,0.43 -0.12,0.42 -0.12,0.42 -0.14,0.41 -0.16,0.41 -0.17,0.4 -0.18,0.38 -0.2,0.37 -0.22,0.36 -0.23,0.34 -0.25,0.32 -0.28,0.3 -0.29,0.27 -0.31,0.25 -0.16,0.12 -0.17,0.1 -0.17,0.1 -0.18,0.1 -0.18,0.08 -0.19,0.08 -0.19,0.07 -0.2,0.06 -0.21,0.05 -0.21,0.05 -0.22,0.03 -0.22,0.02 -0.23,0.02 h -0.23 l -0.05,-1.09 c 2.44,0 2.73,-3.19 2.73,-6.03 0,-2.44 -0.39,-4.99 -1.59,-9.92 h -10.41 c 0.85,3.2 1.85,7.18 3.83,10.72 1.36,2.43 3.19,5.23 5.44,5.23 l 0.05,1.09 c -6.92,0 -14.6,-14.04 -14.6,-25.45 0,-4.69 1.44,-10.22 5.99,-10.22 v 1.1 c -1.66,0 -2.71,1.45 -2.71,6.07 0,2.1 0.3,4.99 1.6,9.86 h 10.37 c -0.54,-2.28 -1.59,-6.51 -3.5,-10.11 -1.73,-3.39 -3.62,-5.82 -5.76,-5.82 v -1.1 c 7.01,0 14.59,14.3 14.59,25.46 z"
           id="path1790"
           inkscape:connector-curvature="0"
           style="fill:#000000;stroke-width:0" /><path
           d="m 490.59,420.92 v 0.04 0.04 0.05 0.04 0.03 0.04 0.04 0.03 0.04 0.03 l -0.01,0.03 v 0.03 0.03 0.03 l -0.01,0.03 v 0.02 l -0.01,0.03 v 0.02 l -0.01,0.03 v 0.02 l -0.01,0.04 -0.02,0.04 -0.01,0.03 -0.02,0.03 -0.03,0.03 -0.02,0.03 -0.03,0.02 -0.03,0.02 -0.03,0.02 -0.04,0.01 -0.04,0.01 -0.04,0.02 h -0.03 -0.02 l -0.03,0.01 h -0.02 l -0.03,0.01 h -0.03 -0.03 -0.03 -0.03 l -0.04,0.01 h -0.03 -0.04 -0.03 -0.04 -0.04 -0.04 -0.04 -0.04 -0.05 -0.04 c -2.24,-2.2 -5.39,-2.23 -6.83,-2.23 v -1.25 c 0.84,0 3.14,0 5.05,0.97 v -17.77 c 0,-1.16 0,-1.61 -3.49,-1.61 h -1.31 v -1.25 c 0.62,0.03 4.91,0.14 6.2,0.14 1.08,0 5.47,-0.11 6.24,-0.14 v 1.25 h -1.33 c -3.49,0 -3.49,0.45 -3.49,1.61 z"
           id="path1792"
           inkscape:connector-curvature="0"
           style="fill:#000000;stroke-width:0" /></g>    </g>
    <g
       id="g1833"
       transform="translate(-71.059524,0.75595238)">
      <g
         word-spacing="normal"
         letter-spacing="normal"
         font-size-adjust="none"
         font-stretch="normal"
         font-weight="normal"
         font-variant="normal"
         font-style="normal"
         stroke-miterlimit="10.433"
         xml:space="preserve"
         transform="matrix(0.3,0,0,-0.3,-52.5,222.75)"
         id="g1831"
         style="font-style:normal;font-variant:normal;font-weight:normal;font-stretch:normal;letter-spacing:normal;word-spacing:normal;text-anchor:start;fill:none;fill-opacity:1;fill-rule:evenodd;stroke:#000000;stroke-linecap:butt;stroke-linejoin:miter;stroke-miterlimit:10.43299961;stroke-dasharray:none;stroke-dashoffset:0;stroke-opacity:1"><path
           id="path1827"
           d="m 478.19,431.11 v 0.31 l -0.01,0.34 -0.02,0.36 -0.02,0.37 -0.03,0.39 -0.04,0.39 -0.04,0.41 -0.06,0.41 -0.07,0.42 -0.07,0.43 -0.09,0.42 -0.1,0.43 -0.12,0.42 -0.12,0.42 -0.14,0.41 -0.16,0.41 -0.17,0.4 -0.18,0.38 -0.2,0.37 -0.22,0.36 -0.23,0.34 -0.25,0.32 -0.28,0.3 -0.29,0.27 -0.31,0.25 -0.16,0.12 -0.17,0.1 -0.17,0.1 -0.18,0.1 -0.18,0.08 -0.19,0.08 -0.19,0.07 -0.2,0.06 -0.21,0.05 -0.21,0.05 -0.22,0.03 -0.22,0.02 -0.23,0.02 h -0.23 l -0.05,-1.09 c 2.44,0 2.73,-3.19 2.73,-6.03 0,-2.44 -0.39,-4.99 -1.59,-9.92 h -10.41 c 0.85,3.2 1.85,7.18 3.83,10.72 1.36,2.43 3.19,5.23 5.44,5.23 l 0.05,1.09 c -6.92,0 -14.6,-14.04 -14.6,-25.45 0,-4.69 1.44,-10.22 5.99,-10.22 v 1.1 c -1.66,0 -2.71,1.45 -2.71,6.07 0,2.1 0.3,4.99 1.6,9.86 h 10.37 c -0.54,-2.28 -1.59,-6.51 -3.5,-10.11 -1.73,-3.39 -3.62,-5.82 -5.76,-5.82 v -1.1 c 7.01,0 14.59,14.3 14.59,25.46 z"
           inkscape:connector-curvature="0"
           style="fill:#000000;stroke-width:0" /><path
           id="path1829"
           d="m 496.52,405.11 h -1.19 c -0.1,-0.77 -0.45,-2.83 -0.91,-3.18 -0.26,-0.2 -2.95,-0.2 -3.44,-0.2 h -6.42 c 3.66,3.23 4.88,4.2 6.97,5.84 2.58,2.07 4.99,4.22 4.99,7.54 0,4.21 -3.69,6.79 -8.16,6.79 -4.31,0 -7.25,-3.03 -7.25,-6.23 0,-1.78 1.5,-1.96 1.86,-1.96 0.83,0 1.84,0.6 1.84,1.85 0,0.62 -0.25,1.84 -2.06,1.84 1.08,2.47 3.45,3.24 5.09,3.24 3.49,0 5.3,-2.71 5.3,-5.53 0,-3.04 -2.16,-5.44 -3.28,-6.69 l -8.39,-8.3 c -0.36,-0.31 -0.36,-0.39 -0.36,-1.36 h 14.36 z"
           inkscape:connector-curvature="0"
           style="fill:#000000;stroke-width:0" /></g>    </g>
    <text
       xml:space="preserve"
       style="font-style:normal;font-weight:normal;font-size:10.58333302px;line-height:1.25;font-family:sans-serif;letter-spacing:0px;word-spacing:0px;fill:#000000;fill-opacity:1;stroke:none;stroke-width:0.26458332"
       x="127.37797"
       y="104.9881"
       id="text1857"><tspan
         sodipodi:role="line"
         id="tspan1855"
         x="127.37797"
         y="104.9881"
         style="stroke-width:0.26458332">Interesting regions</tspan><tspan
         sodipodi:role="line"
         x="127.37797"
         y="118.21726"
         style="stroke-width:0.26458332"
         id="tspan1859">of the policy</tspan></text>
    <path
       style="fill:none;stroke:#000000;stroke-width:0.66500002;stroke-linecap:butt;stroke-linejoin:miter;stroke-miterlimit:4;stroke-dasharray:none;stroke-opacity:1;marker-end:url(#Arrow1Mend-5)"
       d="m 176.99376,128.05072 46.86908,6.42559"
       id="path817-5"
       inkscape:connector-curvature="0"
       sodipodi:nodetypes="cc" />
    <path
       style="fill:none;stroke:#000000;stroke-width:0.965;stroke-linecap:butt;stroke-linejoin:miter;stroke-opacity:1;stroke-miterlimit:4;stroke-dasharray:none"
       d="m 52.53869,209.6875 c -0.377976,0.50397 -0.755951,1.00794 -1.13393,1.51191 0,0.12599 0.05635,0.26528 0,0.37797 -0.07968,0.15937 -0.298291,0.21861 -0.377976,0.37798 -0.151191,0.30238 0.151191,0.83155 0,1.13393 -0.07968,0.15937 -0.298291,0.21861 -0.377975,0.37798 -0.05635,0.11269 0.05635,0.26528 0,0.37797 -0.15937,0.31874 -0.596583,0.43722 -0.755952,0.75595 -0.05635,0.11269 0.05635,0.26529 0,0.37798 -0.07968,0.15937 -0.279141,0.22972 -0.377976,0.37798 -0.464095,0.69614 -0.703241,1.55004 -1.13393,2.26785 -0.23372,0.38954 -0.522232,0.7444 -0.755952,1.13393 -0.144946,0.24158 -0.251983,0.50397 -0.377975,0.75595 -0.251984,0.50397 -0.533998,0.99401 -0.755952,1.51191 -0.156948,0.36621 -0.22103,0.76772 -0.377978,1.13393 -1.720655,3.44131 -0.02162,-0.13495 -1.133928,2.64583 -0.403175,1.00794 -0.505235,0.63629 -0.755952,1.88988 -0.04942,0.24709 0.07968,0.5169 0,0.75595 -0.05635,0.16904 -0.298291,0.21861 -0.377975,0.37798 -0.05635,0.11269 0,0.25199 0,0.37798 -0.125992,0.12599 -0.298294,0.2186 -0.377979,0.37797 -0.04886,0.0977 0,1.99995 0,2.26786 0,0.88194 0,1.76389 0,2.64583 0,0.37798 -0.119525,0.77535 0,1.13393 0.112692,0.33807 0.558282,0.45945 0.755954,0.75595 0.156274,0.23442 0.221703,0.52154 0.377976,0.75596 0.09883,0.14825 0.251984,0.25198 0.377976,0.37797 0.251984,0.25199 0.503968,0.50397 0.755952,0.75595 0.125992,0.126 0.229722,0.27915 0.377976,0.37798 0.234412,0.15627 0.521541,0.2217 0.755954,0.37798 0.868349,0.5789 -0.162079,0.2159 0.755951,1.13393 0.19921,0.19921 0.521542,0.2217 0.755952,0.37797 0.148254,0.0988 0.229722,0.27914 0.377976,0.37798 0.234413,0.15627 0.556741,0.17876 0.755954,0.37797 0.08909,0.0891 -0.05635,0.26529 0,0.37798 0.08752,0.17503 1.2896,1.2896 1.511903,1.51191 0.222306,0.2223 1.336874,1.42438 1.511906,1.5119 0.112692,0.0563 0.265285,-0.0563 0.377976,0 0.453573,0.22679 0.680358,0.90714 1.133927,1.13393 0.112692,0.0563 0.251987,0 0.377979,0 0.251984,0.12599 0.521541,0.2217 0.755951,0.37797 0.444762,0.29651 0.706298,0.81321 1.133928,1.13393 0.225383,0.16904 0.521541,0.2217 0.755954,0.37798 0.148254,0.0988 0.229722,0.27914 0.377976,0.37798 1.650828,1.10055 -0.12459,-0.16752 1.511903,0.37797 0.169037,0.0564 0.229722,0.27914 0.377976,0.37798 0.234413,0.15627 0.521541,0.2217 0.755954,0.37797 0.148254,0.0988 0.208939,0.32163 0.377976,0.37798 1.720654,0 0.02162,-0.17818 1.133928,0.37798 0.115032,0.0575 0.963705,0 1.13393,0 1.007935,0 2.015871,0 3.023809,0 1.637895,0 3.275793,0 4.91369,0 0.329245,0 2.128346,0.0697 2.267858,0 0.159366,-0.0797 0.229722,-0.27914 0.377976,-0.37798 1.909461,-1.27297 0.0088,-0.003 1.133927,-0.37798 0.267269,-0.0891 0.488683,-0.28888 0.755952,-0.37797 0.119528,-0.0398 0.25845,0.0398 0.377978,0 0.267269,-0.0891 0.482637,-0.30965 0.755952,-0.37798 0.514855,-0.12871 1.810586,0.15243 2.267857,0 0.169035,-0.0563 0.208939,-0.32163 0.377976,-0.37797 0.239054,-0.0797 0.503968,0 0.755952,0 0.251984,0 0.503968,0 0.755951,0 1.13393,0 2.267858,0 3.401788,0 0.755952,0 1.511903,0 2.267857,0 0.170223,0 1.018898,-0.0575 1.133928,0 0.433319,0.21666 0.525767,0.78865 0.755952,1.13392 0.09884,0.14826 0.321632,0.20895 0.377975,0.37798 0.07968,0.23905 -0.07968,0.5169 0,0.75595 0.05635,0.16904 0.279141,0.22973 0.377979,0.37798 0.156273,0.23441 0.221702,0.52154 0.377976,0.75595 0.217437,0.32616 0.838694,0.8387 1.133927,1.13393 0.125992,0.12599 0.251984,0.25199 0.377976,0.37798 0.125992,0.12599 0.218609,0.29829 0.377976,0.37797 0.112691,0.0564 0.265287,-0.0563 0.377978,0 0.159367,0.0797 0.218607,0.29829 0.377976,0.37798 0.112691,0.0563 0.265284,-0.0564 0.377976,0 0.159369,0.0797 0.218606,0.29829 0.377975,0.37797 0.112692,0.0563 0.251984,0 0.377976,0 0.125992,0 0.251984,0 0.377976,0 0.629962,0 1.259922,0 1.889882,0 2.141865,0 4.283731,0 6.425591,0 2.39385,0 4.7877,0 7.18155,0 0.50397,0 1.00794,0 1.51191,0 0.50396,0 1.013,0.0713 1.5119,0 0.39442,-0.0563 0.75084,-0.26852 1.13393,-0.37797 0.49949,-0.14271 1.03443,-0.17335 1.5119,-0.37798 0.41755,-0.17894 0.72762,-0.55279 1.13393,-0.75595 0.35636,-0.17818 0.79229,-0.17299 1.13393,-0.37798 0.30558,-0.18334 0.45038,-0.5726 0.75595,-0.75595 0.36902,-0.22141 1.50743,-0.3735 1.88988,-0.75595 0.19921,-0.19921 0.22171,-0.52154 0.37798,-0.75595 0.0988,-0.14826 0.25198,-0.25199 0.37798,-0.37798 0.12599,-0.12599 0.22972,-0.27914 0.37797,-0.37798 0.23441,-0.15627 0.55675,-0.17876 0.75596,-0.37797 0.19921,-0.19921 0.2217,-0.52154 0.37797,-0.75595 0.19767,-0.29651 0.55828,-0.45945 0.75595,-0.75596 0.15628,-0.23441 0.22171,-0.52154 0.37798,-0.75595 0.0988,-0.14825 0.27914,-0.22972 0.37798,-0.37798 0.15627,-0.23441 0.25198,-0.50396 0.37797,-0.75595 0.126,-0.25198 0.28889,-0.48868 0.37798,-0.75595 0.0398,-0.11953 -0.0398,-0.25845 0,-0.37798 0.0891,-0.26727 0.30965,-0.48263 0.37798,-0.75595 0.0611,-0.24446 -0.0611,-0.51149 0,-0.75595 0.0683,-0.27332 0.30964,-0.48264 0.37797,-0.75595 0.064,-0.2558 0,-2.40261 0,-2.64584 0,-1.5119 0,-3.02381 0,-4.53571 0,-1.25992 0,-2.51984 0,-3.77976 0,-0.21097 0.0577,-1.71686 0,-1.88988 -0.0563,-0.16904 -0.27914,-0.22972 -0.37797,-0.37798 -0.71605,0.043 -0.25199,-0.88194 -0.37798,-1.13393 -0.16751,-0.33501 -0.90454,-0.78985 -1.13393,-1.13393 -0.36721,-0.55081 -0.23597,-0.78727 -0.75595,-1.13393 -0.23441,-0.15627 -0.55674,-0.17876 -0.75595,-0.37797 -0.19921,-0.19921 -0.17877,-0.55674 -0.37798,-0.75595 -0.19921,-0.19922 -0.55674,-0.17877 -0.75595,-0.37798 -0.19921,-0.19921 -0.17877,-0.55674 -0.37798,-0.75595 -0.38245,-0.38246 -1.52086,-0.53454 -1.88988,-0.75595 -0.30558,-0.18335 -0.45038,-0.57261 -0.75595,-0.75596 -0.34165,-0.20498 -0.76772,-0.22103 -1.13393,-0.37797 -1.86528,-0.79941 -1.48556,-1.02029 -3.77976,-1.51191 -0.99324,-0.21283 -2.03836,-0.13161 -3.02381,-0.37797 -1.04434,-0.26109 -1.99108,-0.83019 -3.02381,-1.13393 -2.65064,-0.7796 -3.85387,-0.65467 -6.425596,-1.51191 -0.910289,-0.30343 -1.750264,-0.78948 -2.645834,-1.13393 -0.74373,-0.28605 -1.542438,-0.42621 -2.267857,-0.75595 -0.668803,-0.304 -1.24768,-0.77715 -1.889882,-1.13393 -3.243527,-1.62176 0.02543,0.0908 -2.645833,-1.5119 -0.241578,-0.14495 -0.521541,-0.2217 -0.755952,-0.37798 -0.148254,-0.0988 -0.229721,-0.27914 -0.377975,-0.37797 -0.234413,-0.15628 -0.521542,-0.22171 -0.755955,-0.37798 -0.940191,-0.6268 -0.04342,-0.0868 -0.377975,-0.75595 -0.07968,-0.15937 -0.251984,-0.25199 -0.377976,-0.37798 -0.125992,-0.12599 -0.251984,-0.25198 -0.377976,-0.37798 -0.198991,-0.19899 -0.932058,-1.03299 -1.133928,-1.13392 -0.669102,-0.33456 -0.129159,0.56221 -0.755954,-0.37798 -0.716047,0.043 -0.251984,-0.88195 -0.377976,-1.13393 -0.159369,-0.31874 -0.64326,-0.41788 -0.755951,-0.75595 -0.07968,-0.23905 0.06112,-0.51149 0,-0.75595 -0.06833,-0.27332 -0.322726,-0.4797 -0.377976,-0.75596 -0.07413,-0.37063 0,-0.75595 0,-1.13392 0,-1.13393 0,-2.26786 0,-3.40179 0,-2.39385 0,-4.7877 0,-7.18155 0,-1.00794 0,-2.01587 0,-3.02381 0,-0.32755 0.07298,-1.29295 0,-1.5119 -0.08422,-0.25267 -0.98456,-2.08115 -1.13393,-2.26786 -0.333923,-0.4174 -0.755952,-0.75595 -1.133928,-1.13393 -0.251983,-0.25198 -0.477684,-0.53333 -0.755951,-0.75595 -0.827738,-0.66219 -2.228128,-1.3329 -3.023812,-1.88988 -0.660908,-0.46264 -1.202812,-1.08909 -1.889879,-1.51191 -4.719976,-2.35998 -1.373833,-0.53064 -5.291667,-3.02381 -0.619799,-0.39441 -1.247679,-0.77715 -1.889881,-1.13392 -1.614292,-0.89683 -1.288114,-0.49362 -2.645834,-1.51191 -0.42763,-0.32072 -0.755951,-0.75595 -1.133927,-1.13393 -0.125992,-0.12599 -0.279141,-0.22972 -0.377978,-0.37797 -0.156274,-0.23441 -0.221703,-0.52155 -0.377976,-0.75596 -0.197673,-0.2965 -0.596583,-0.43721 -0.755952,-0.75595 -0.112691,-0.22538 0.112692,-0.53057 0,-0.75595 -0.07968,-0.15937 -0.298291,-0.21861 -0.377976,-0.37798 -0.06834,-0.13668 0,-1.62698 0,-1.88988 0,-0.12599 0,-0.25198 0,-0.37797 0,-0.12599 -0.08909,-0.28889 0,-0.37798 0.08909,-0.0891 0.265285,0.0563 0.377976,0 0.159369,-0.0797 0.218607,-0.29829 0.377976,-0.37798 0.136689,-0.0683 1.626984,0 1.889882,0 3.401785,0 6.80357,0 10.205357,0 1.385911,0 2.771825,0 4.157737,0 0.629962,0 1.272153,-0.12354 1.889881,0 0.276257,0.0553 0.482637,0.30965 0.755952,0.37798 0.244462,0.0611 0.511492,-0.0611 0.755954,0 0.273315,0.0683 0.482637,0.30965 0.755952,0.37798 0.244459,0.0611 0.516898,-0.0797 0.755951,0 0.169037,0.0563 0.208942,0.32163 0.377976,0.37797 0.31305,0.10435 1.649511,-0.12018 1.889882,0 0.159369,0.0797 0.251984,0.25199 0.377976,0.37798 0.251984,0 0.5169,-0.0797 0.755951,0 0.169037,0.0563 0.208942,0.32163 0.377979,0.37797 0.239051,0.0797 0.516898,-0.0797 0.755951,0 0.169037,0.0563 0.208939,0.32164 0.377976,0.37798 0.239054,0.0797 0.503968,0 0.755952,0 0.125992,0 0.265287,-0.0563 0.377976,0 0.159369,0.0797 0.208941,0.32163 0.377978,0.37798 0.340178,0.11339 0.79375,-0.1134 1.133927,0 0.267269,0.0891 0.482638,0.30964 0.755952,0.37797 0.656259,0.16407 1.611598,-0.16406 2.267858,0 0.273314,0.0683 0.482637,0.30965 0.755951,0.37798 0.488921,0.12223 1.022985,-0.12223 1.511906,0 0.273315,0.0683 0.503968,0.25198 0.755952,0.37798 0.251984,0.12599 0.503967,0.25198 0.755954,0.37797 0.503968,0.25199 1.007932,0.50397 1.511902,0.75595 0.25199,0.126 0.53057,0.20895 0.75595,0.37798 0.28509,0.21382 0.47087,0.54214 0.75596,0.75595 0.22538,0.16904 0.53057,0.20894 0.75595,0.37798 0.11981,0.0899 1.73235,1.65359 1.88988,1.88988 0.15627,0.23441 0.2217,0.52154 0.37798,0.75595 0.19767,0.29651 0.55827,0.45945 0.75595,0.75595 0.15627,0.23442 0.25198,0.50397 0.37797,0.75596 0.126,0.25198 0.28889,0.48868 0.37798,0.75595 0.0398,0.11953 -0.0398,0.25845 0,0.37798 0.0891,0.26727 0.30965,0.48263 0.37798,0.75595 0.0611,0.24446 -0.0797,0.5169 0,0.75595 0.0563,0.16904 0.32163,0.20894 0.37797,0.37798 0.15243,0.45727 -0.12871,1.753 0,2.26785 0.0683,0.27332 0.28889,0.48869 0.37798,0.75596 0.0856,0.25676 0,2.15829 0,2.64583 0,0.12599 0,0.25198 0,0.37798 0,0.12599 -0.0564,0.26528 0,0.37797 0.0797,0.15937 0.29829,0.21861 0.37798,0.37798 0.0749,0.14986 -0.0773,1.05665 0,1.13393 0.0891,0.0891 0.28888,-0.0891 0.37797,0 0.0891,0.0891 -0.0563,0.26528 0,0.37797 0.0797,0.15937 0.29829,0.21861 0.37798,0.37798 0.0563,0.11269 -0.0891,0.28888 0,0.37798 0.0891,0.0891 0.26528,-0.0564 0.37797,0 0.33502,0.1675 0.78986,0.90454 1.13393,1.13392 0.23441,0.15628 0.50397,0.25199 0.75595,0.37798 0.50397,0.25199 0.98875,0.54669 1.51191,0.75595 0.36992,0.14797 0.764,0.23001 1.13393,0.37798 0.26158,0.10463 0.48263,0.30965 0.75595,0.37797 0.24446,0.0611 0.50886,-0.0494 0.75595,0 0.39069,0.0781 0.74325,0.29984 1.13393,0.37798 0.24709,0.0494 0.50886,-0.0494 0.75595,0 0.39069,0.0781 0.74325,0.29984 1.13393,0.37798 0.24709,0.0494 0.50887,-0.0494 0.75595,0 0.39069,0.0781 0.74325,0.29984 1.13393,0.37797 0.24709,0.0494 0.50886,-0.0494 0.75596,0 0.39068,0.0781 0.74324,0.29984 1.13392,0.37798 1.74105,0.34821 -0.22914,-0.34821 1.51191,0 0.39068,0.0781 0.74324,0.29984 1.13393,0.37798 0.24709,0.0494 0.50886,-0.0494 0.75595,0 0.39068,0.0781 0.74093,0.31247 1.13393,0.37797 0.37283,0.0621 0.75975,-0.0534 1.13393,0 0.51426,0.0735 0.99644,0.31354 1.5119,0.37798 0.50008,0.0625 1.013,-0.0713 1.51191,0 0.39441,0.0563 0.73951,0.32163 1.13392,0.37797 0.87309,0.12473 1.77589,-0.14499 2.64584,0 0.393,0.0655 0.74093,0.31248 1.13393,0.37798 0.37283,0.0621 0.76329,-0.0741 1.13393,0 0.27625,0.0553 0.48263,0.30965 0.75595,0.37798 0.24446,0.0611 0.50397,0 0.75595,0 0.25199,0.12599 0.48868,0.28888 0.75595,0.37797 0.23906,0.0797 0.5169,-0.0797 0.75595,0 2.73784,0.91262 -0.59592,-0.10897 1.13393,0.75596 0.11269,0.0563 0.26529,-0.0564 0.37798,0 0.31874,0.15936 0.43721,0.59658 0.75595,0.75595 0.11269,0.0563 0.28889,-0.0891 0.37798,0 0.0891,0.0891 -0.0564,0.26528 0,0.37797 0.0797,0.15937 0.29829,0.21861 0.37797,0.37798 0.0564,0.11269 -0.0398,0.25845 0,0.37798 0.0891,0.26727 0.28889,0.48868 0.37798,0.75595 0.0398,0.11952 0,0.25198 0,0.37797 0,0.37798 0,0.75596 0,1.13393 0,0.25199 -0.0611,0.51149 0,0.75596 0.0683,0.27331 0.30965,0.48263 0.37798,0.75595 0.0611,0.24446 0,0.50397 0,0.75595 0,0.25199 0,0.50397 0,0.75595 0,1.00794 0,2.01587 0,3.02381 0,0.32443 -0.0737,2.04671 0,2.26786 0.0563,0.16903 0.29829,0.21861 0.37797,0.37798 0.15119,0.30238 -0.15119,0.83154 0,1.13392 0.0797,0.15937 0.32163,0.20894 0.37798,0.37798 0.0797,0.23905 -0.0797,0.5169 0,0.75595 0.0564,0.16904 0.29829,0.21861 0.37798,0.37798 0.0563,0.11269 -0.0564,0.26528 0,0.37798 0.0797,0.15936 0.32163,0.20893 0.37797,0.37797 0.0797,0.23905 -0.0611,0.51149 0,0.75595 0.0683,0.27332 0.25199,0.50397 0.37798,0.75596 0.12599,0.25198 0.2217,0.52154 0.37797,0.75595 0.0988,0.14825 0.27914,0.22972 0.37798,0.37797 0.15628,0.23441 0.25199,0.50397 0.37798,0.75596 0.25198,0.50397 0.50397,1.00793 0.75595,1.5119 0.12599,0.25199 0.20894,0.53057 0.37797,0.75595 0.21382,0.28509 0.54214,0.47087 0.75596,0.75596 0.16903,0.22538 0.20894,0.53057 0.37797,0.75595 0.21382,0.28509 0.53334,0.47768 0.75596,0.75595 0.28378,0.35473 0.47217,0.7792 0.75595,1.13393 0.44523,0.55654 1.00793,1.00794 1.5119,1.5119 0.50397,0.50397 0.96438,1.05564 1.51191,1.51191 0.48395,0.40329 0.99928,0.76777 1.5119,1.13393 0.73931,0.52808 1.55841,0.94434 2.26786,1.5119 0.27827,0.22262 0.45038,0.57261 0.75595,0.75595 3.07338,1.84403 -0.40484,-0.77386 1.88988,0.75596 0.29651,0.19767 0.41788,0.64326 0.75596,0.75595 0.17288,0.0576 1.34371,-0.0841 1.5119,0 0.15937,0.0797 0.21861,0.29829 0.37798,0.37798 0.0994,0.0497 1.31425,0 1.5119,0 1.00794,0 2.01587,0 3.02381,0 0.62996,0 1.25992,0 1.88988,0 0.25199,0 0.5169,0.0797 0.75595,0 0.68649,-0.22883 0.70147,-0.32349 1.13393,-0.75596 0.12599,-0.12599 0.21861,-0.29829 0.37798,-0.37797 0.11269,-0.0564 0.26528,0.0563 0.37797,0 0.31874,-0.15937 0.43722,-0.59659 0.75596,-0.75596 0.11269,-0.0563 0.26528,0.0563 0.37797,0 0.31874,-0.15936 0.43722,-0.59658 0.75596,-0.75595 0.30238,-0.15119 0.83154,0.15119 1.13392,0 0.15937,-0.0797 0.21861,-0.29829 0.37798,-0.37797 0.22301,-0.11151 0.87394,0.0867 1.13393,0 0.26727,-0.0891 0.48868,-0.28889 0.75595,-0.37798 0.21895,-0.073 1.18436,0 1.51191,0 1.38591,0 2.77182,0 4.15773,0 4.15774,0 8.31548,0 12.47322,0 1.38591,0 2.77182,0 4.15773,0 0.62997,0 1.25993,0 1.88989,0 0.37797,0 0.77534,-0.11953 1.13393,0 0.16903,0.0563 0.25198,0.25199 0.37797,0.37798 0.12599,0.12599 0.27914,0.22972 0.37798,0.37797 0.15627,0.23441 0.2217,0.52154 0.37797,0.75595 0.21744,0.32616 0.8387,0.8387 1.13393,1.13393 0.126,0.12599 0.2983,0.21861 0.37798,0.37798 0.0563,0.11269 0,0.25198 0,0.37798 0.12599,0.25198 0.2217,0.52154 0.37798,0.75595 0.19767,0.29651 0.59658,0.43721 0.75595,0.75595 0.0563,0.11269 0,0.25198 0,0.37798 0,0.25198 -0.0797,0.5169 0,0.75595 0.0563,0.16903 0.32163,0.20894 0.37797,0.37798 0.0797,0.23905 -0.0797,0.51689 0,0.75595 0.0564,0.16903 0.29829,0.2186 0.37798,0.37797 0.0563,0.11269 -0.0398,0.25845 0,0.37798 0.0891,0.26727 0.28889,0.48868 0.37797,0.75595 0.11953,0.35858 -0.11952,0.77535 0,1.13393 0.0564,0.16904 0.2983,0.21861 0.37798,0.37798 0.11879,0.23756 -0.11878,1.27434 0,1.5119 0.0797,0.15937 0.32163,0.20894 0.37798,0.37798 0.11952,0.35858 0,0.75595 0,1.13393 0,1.13393 0,2.26785 0,3.40178 0,3.1498 0,6.29961 0,9.44941 0,1.5119 0,3.02381 0,4.53571 0,0.19765 -0.0497,1.41252 0,1.51191 0.0797,0.15936 0.29829,0.2186 0.37797,0.37797 0.0563,0.11269 -0.0891,0.28889 0,0.37798 0.0891,0.0891 0.28889,-0.0891 0.37798,0 0.0891,0.0891 -0.0891,0.28888 0,0.37797 0.0891,0.0891 0.28889,-0.0891 0.37798,0 0.17818,0.17818 -0.17818,0.57778 0,0.75596 0.0891,0.0891 0.25198,0 0.37797,0 0,0.12599 -0.0891,0.28888 0,0.37797 0.0891,0.0891 0.25199,0 0.37798,0 0.12599,0 0.25198,0 0.37798,0 1.13392,0 2.26785,0 3.40178,0"
       id="path2596"
       inkscape:connector-curvature="0" />
    <text
       xml:space="preserve"
       style="font-style:normal;font-weight:normal;font-size:10.58333302px;line-height:1.25;font-family:sans-serif;letter-spacing:0px;word-spacing:0px;fill:#000000;fill-opacity:1;stroke:none;stroke-width:0.26458332"
       x="169.33333"
       y="190.03275"
       id="text2630"><tspan
         sodipodi:role="line"
         id="tspan2628"
         x="169.33333"
         y="190.03275"
         style="stroke-width:0.26458332">Random exploration</tspan></text>
    <path
       style="fill:none;stroke:#000000;stroke-width:0.66500002;stroke-linecap:butt;stroke-linejoin:miter;stroke-miterlimit:4;stroke-dasharray:none;stroke-opacity:1;marker-end:url(#Arrow1Mend-5-6)"
       d="m 214.06386,196.66593 -10.96127,26.08035"
       id="path817-5-9"
       inkscape:connector-curvature="0"
       sodipodi:nodetypes="cc" />
    <ellipse
       style="fill:#000000;fill-opacity:0.19087135;stroke:#000000;stroke-width:0.60000002;stroke-miterlimit:4;stroke-dasharray:none;stroke-dashoffset:0;stroke-opacity:1"
       id="path815-1"
       cx="75.595238"
       cy="132.95833"
       rx="19.84375"
       ry="19.087799" />
    <path
       style="fill:none;stroke:#000000;stroke-width:0.66500002;stroke-linecap:butt;stroke-linejoin:miter;stroke-miterlimit:4;stroke-dasharray:none;stroke-opacity:1;marker-end:url(#Arrow1Mend-5-2)"
       d="m 155.85553,127.11831 -53.67259,8.31547"
       id="path817-5-0"
       inkscape:connector-curvature="0"
       sodipodi:nodetypes="cc" />
  </g>
</svg>
